<?xml version="1.0" encoding="UTF-8" standalone="no"?>
<svg
   width="150px"
   height="64px"
   viewBox="0 0 150 64"
   version="1.1"
   id="svg1"
   sodipodi:docname="favicon.svg"
   inkscape:version="1.4 (86a8ad7, 2024-10-11)"
   xmlns:inkscape="http://www.inkscape.org/namespaces/inkscape"
   xmlns:sodipodi="http://sodipodi.sourceforge.net/DTD/sodipodi-0.dtd"
   xmlns="http://www.w3.org/2000/svg"
   xmlns:svg="http://www.w3.org/2000/svg">
  <defs
     id="defs1" />
  <sodipodi:namedview
     id="namedview1"
     pagecolor="#ffffff"
     bordercolor="#000000"
     borderopacity="0.25"
     inkscape:showpageshadow="2"
     inkscape:pageopacity="0.0"
     inkscape:pagecheckerboard="0"
     inkscape:deskcolor="#d1d1d1"
     inkscape:zoom="2.95"
     inkscape:cx="90.169492"
     inkscape:cy="45.59322"
     inkscape:window-width="1680"
     inkscape:window-height="979"
     inkscape:window-x="-8"
     inkscape:window-y="24"
     inkscape:window-maximized="1"
     inkscape:current-layer="g1" />
  <g
     id="Logo">
    <g
       id="g1">
      <path
         d="M0 0.0682002C0 0.0682002 36.2078 -0.0852503 52.1674 0.0682002C73.9404 0.277545 76.3957 29.0911 54.6755 32.4117C47.2145 32.4117 20.4672 32.4117 20.4672 32.4117L20.4672 44.4503L48.0827 44.4537L48.0827 63.9997L0 63.9997L5.32237e-06 44.4537L19.6023 44.4537L19.6023 19.6192L0 19.6192L0 0.0682002Z"
         id="P"
         fill="#F15533"
         fill-rule="evenodd"
         stroke="none" />
      <path
         d="M20.5634 19.6813C20.5634 19.6813 44.1515 19.6813 54.9639 19.6813C64.3971 19.7309 65.2454 30.9966 53.2343 31.7511C44.6097 31.7511 20.5634 31.7511 20.5634 31.7511L20.5634 19.6813Z"
         id="Rectangle"
         fill="#000000"
         fill-rule="evenodd"
         stroke="none"
         style="fill:#000000" />
    </g>
    <g
       id="S"
       transform="translate(79.75513 0.06826784)">
      <path
         d="M16.4685 -7.45058e-09C28.9814 -7.45058e-09 70.1809 -7.45058e-09 70.1809 -7.45058e-09L70.1809 19.6159C70.1809 19.6159 27.4573 19.6131 14.0642 19.6131C5.73904 19.6622 3.75056 31.2751 17.3313 31.494C31.9111 31.494 41.6194 31.494 54.3259 31.494C75.8397 32.763 75.7606 64.0887 52.7883 63.9311C32.1835 63.9311 0.227745 63.9314 0.227745 63.9314L0.227745 44.1112C0.227745 44.1112 42.6775 44.1112 56.8248 44.1112C65.8755 42.7822 64.3558 32.4205 53.9419 32.4205C44.5134 32.4205 29.4024 32.4205 18.1963 32.4205C-3.53005 32.8384 -7.82863 2.56167 16.4685 -7.45058e-09Z"
         id="s"
         fill="#F15533"
         fill-rule="evenodd"
         stroke="none" />
    </g>
  </g>
</svg>
